<?xml version="1.0" encoding="UTF-8" standalone="no"?>
<!DOCTYPE svg PUBLIC "-//W3C//DTD SVG 1.1//EN"
 "http://www.w3.org/Graphics/SVG/1.1/DTD/svg11.dtd">
<!-- Generated by graphviz version 12.2.0 (20241103.1931)
 -->
<!-- Title: dependency&#45;cruiser output Pages: 1 -->
<svg width="721pt" height="298pt"
 viewBox="0.00 0.00 720.50 298.00" xmlns="http://www.w3.org/2000/svg" xmlns:xlink="http://www.w3.org/1999/xlink">
<g id="graph0" class="graph" transform="scale(1 1) rotate(0) translate(4 294)">
<title>dependency&#45;cruiser output</title>
<polygon fill="white" stroke="none" points="-4,4 -4,-294 716.5,-294 716.5,4 -4,4"/>
<g id="clust1" class="cluster">
<title>cluster_src</title>
<path fill="#ffffff" stroke="black" stroke-width="2" d="M20,-8C20,-8 692.5,-8 692.5,-8 698.5,-8 704.5,-14 704.5,-20 704.5,-20 704.5,-270 704.5,-270 704.5,-276 698.5,-282 692.5,-282 692.5,-282 20,-282 20,-282 14,-282 8,-276 8,-270 8,-270 8,-20 8,-20 8,-14 14,-8 20,-8"/>
<text text-anchor="middle" x="356.25" y="-269.45" font-family="Helvetica,sans-Serif" font-weight="bold" font-size="9.00">src</text>
</g>
<g id="clust2" class="cluster">
<title>cluster_src/Atoms</title>
<path fill="#ffffff" stroke="black" stroke-width="2" d="M398.25,-26C398.25,-26 528.25,-26 528.25,-26 534.25,-26 540.25,-32 540.25,-38 540.25,-38 540.25,-96 540.25,-96 540.25,-102 534.25,-108 528.25,-108 528.25,-108 398.25,-108 398.25,-108 392.25,-108 386.25,-102 386.25,-96 386.25,-96 386.25,-38 386.25,-38 386.25,-32 392.25,-26 398.25,-26"/>
<text text-anchor="middle" x="463.25" y="-95.45" font-family="Helvetica,sans-Serif" font-weight="bold" font-size="9.00">Atoms</text>
</g>
<g id="clust3" class="cluster">
<title>cluster_src/Components</title>
<path fill="#ffffff" stroke="black" stroke-width="2" d="M168,-27C168,-27 287.25,-27 287.25,-27 293.25,-27 299.25,-33 299.25,-39 299.25,-39 299.25,-157 299.25,-157 299.25,-163 293.25,-169 287.25,-169 287.25,-169 168,-169 168,-169 162,-169 156,-163 156,-157 156,-157 156,-39 156,-39 156,-33 162,-27 168,-27"/>
<text text-anchor="middle" x="227.62" y="-156.45" font-family="Helvetica,sans-Serif" font-weight="bold" font-size="9.00">Components</text>
</g>
<g id="clust4" class="cluster">
<title>cluster_src/Components/User</title>
<path fill="#ffffff" stroke="black" stroke-width="2" d="M176,-35C176,-35 279.25,-35 279.25,-35 285.25,-35 291.25,-41 291.25,-47 291.25,-47 291.25,-75 291.25,-75 291.25,-81 285.25,-87 279.25,-87 279.25,-87 176,-87 176,-87 170,-87 164,-81 164,-75 164,-75 164,-47 164,-47 164,-41 170,-35 176,-35"/>
<text text-anchor="middle" x="227.62" y="-74.45" font-family="Helvetica,sans-Serif" font-weight="bold" font-size="9.00">User</text>
</g>
<g id="clust5" class="cluster">
<title>cluster_src/Helpers</title>
<path fill="#ffffff" stroke="black" stroke-width="2" d="M473.75,-140C473.75,-140 614.5,-140 614.5,-140 620.5,-140 626.5,-146 626.5,-152 626.5,-152 626.5,-244 626.5,-244 626.5,-250 620.5,-256 614.5,-256 614.5,-256 473.75,-256 473.75,-256 467.75,-256 461.75,-250 461.75,-244 461.75,-244 461.75,-152 461.75,-152 461.75,-146 467.75,-140 473.75,-140"/>
<text text-anchor="middle" x="544.12" y="-243.45" font-family="Helvetica,sans-Serif" font-weight="bold" font-size="9.00">Helpers</text>
</g>
<g id="clust6" class="cluster">
<title>cluster_src/Helpers/Constants</title>
<path fill="#ffffff" stroke="black" stroke-width="2" d="M560.25,-148C560.25,-148 606.5,-148 606.5,-148 612.5,-148 618.5,-154 618.5,-160 618.5,-160 618.5,-218 618.5,-218 618.5,-224 612.5,-230 606.5,-230 606.5,-230 560.25,-230 560.25,-230 554.25,-230 548.25,-224 548.25,-218 548.25,-218 548.25,-160 548.25,-160 548.25,-154 554.25,-148 560.25,-148"/>
<text text-anchor="middle" x="583.38" y="-217.45" font-family="Helvetica,sans-Serif" font-weight="bold" font-size="9.00">Constants</text>
</g>
<g id="clust7" class="cluster">
<title>cluster_src/Hooks</title>
<path fill="#ffffff" stroke="black" stroke-width="2" d="M319.25,-54C319.25,-54 366.25,-54 366.25,-54 372.25,-54 378.25,-60 378.25,-66 378.25,-66 378.25,-124 378.25,-124 378.25,-130 372.25,-136 366.25,-136 366.25,-136 319.25,-136 319.25,-136 313.25,-136 307.25,-130 307.25,-124 307.25,-124 307.25,-66 307.25,-66 307.25,-60 313.25,-54 319.25,-54"/>
<text text-anchor="middle" x="342.75" y="-123.45" font-family="Helvetica,sans-Serif" font-weight="bold" font-size="9.00">Hooks</text>
</g>
<g id="clust8" class="cluster">
<title>cluster_src/Models</title>
<path fill="#ffffff" stroke="black" stroke-width="2" d="M560.38,-80C560.38,-80 684.5,-80 684.5,-80 690.5,-80 696.5,-86 696.5,-92 696.5,-92 696.5,-120 696.5,-120 696.5,-126 690.5,-132 684.5,-132 684.5,-132 560.38,-132 560.38,-132 554.38,-132 548.38,-126 548.38,-120 548.38,-120 548.38,-92 548.38,-92 548.38,-86 554.38,-80 560.38,-80"/>
<text text-anchor="middle" x="622.44" y="-119.45" font-family="Helvetica,sans-Serif" font-weight="bold" font-size="9.00">Models</text>
</g>
<!-- src/App.tsx -->
<g id="node1" class="node">
<title>src/App.tsx</title>
<g id="a_node1"><a xlink:href="src/App.tsx" xlink:title="App.tsx">
<path fill="#bbfeff" stroke="black" d="M141.96,-112.88C141.96,-112.88 99.79,-112.88 99.79,-112.88 96.83,-112.88 93.88,-109.92 93.88,-106.96 93.88,-106.96 93.88,-101.04 93.88,-101.04 93.88,-98.08 96.83,-95.12 99.79,-95.12 99.79,-95.12 141.96,-95.12 141.96,-95.12 144.92,-95.12 147.88,-98.08 147.88,-101.04 147.88,-101.04 147.88,-106.96 147.88,-106.96 147.88,-109.92 144.92,-112.88 141.96,-112.88"/>
<text text-anchor="start" x="105.88" y="-100.33" font-family="Helvetica,sans-Serif" font-size="9.00">App.tsx</text>
</a>
</g>
</g>
<!-- src/Components/LoginComponent.tsx -->
<g id="node2" class="node">
<title>src/Components/LoginComponent.tsx</title>
<g id="a_node2"><a xlink:href="src/Components/LoginComponent.tsx" xlink:title="LoginComponent.tsx">
<path fill="#bbfeff" stroke="black" d="M272.08,-112.88C272.08,-112.88 183.17,-112.88 183.17,-112.88 180.21,-112.88 177.25,-109.92 177.25,-106.96 177.25,-106.96 177.25,-101.04 177.25,-101.04 177.25,-98.08 180.21,-95.12 183.17,-95.12 183.17,-95.12 272.08,-95.12 272.08,-95.12 275.04,-95.12 278,-98.08 278,-101.04 278,-101.04 278,-106.96 278,-106.96 278,-109.92 275.04,-112.88 272.08,-112.88"/>
<text text-anchor="start" x="185.25" y="-100.33" font-family="Helvetica,sans-Serif" font-size="9.00">LoginComponent.tsx</text>
</a>
</g>
</g>
<!-- src/App.tsx&#45;&gt;src/Components/LoginComponent.tsx -->
<g id="edge1" class="edge">
<title>src/App.tsx&#45;&gt;src/Components/LoginComponent.tsx</title>
<path fill="none" stroke="#000000" stroke-width="2" stroke-opacity="0.200000" d="M148.31,-104C154.44,-104 161.22,-104 168.13,-104"/>
<polygon fill="#000000" fill-opacity="0.200000" stroke="#000000" stroke-width="2" stroke-opacity="0.200000" points="167.91,-106.1 173.91,-104 167.91,-101.9 167.91,-106.1"/>
</g>
<!-- src/Components/User/UserListComponent.tsx -->
<g id="node3" class="node">
<title>src/Components/User/UserListComponent.tsx</title>
<g id="a_node3"><a xlink:href="src/Components/User/UserListComponent.tsx" xlink:title="UserListComponent.tsx">
<path fill="#bbfeff" stroke="black" d="M277.33,-60.88C277.33,-60.88 177.92,-60.88 177.92,-60.88 174.96,-60.88 172,-57.92 172,-54.96 172,-54.96 172,-49.04 172,-49.04 172,-46.08 174.96,-43.12 177.92,-43.12 177.92,-43.12 277.33,-43.12 277.33,-43.12 280.29,-43.12 283.25,-46.08 283.25,-49.04 283.25,-49.04 283.25,-54.96 283.25,-54.96 283.25,-57.92 280.29,-60.88 277.33,-60.88"/>
<text text-anchor="start" x="180" y="-48.33" font-family="Helvetica,sans-Serif" font-size="9.00">UserListComponent.tsx</text>
</a>
</g>
</g>
<!-- src/App.tsx&#45;&gt;src/Components/User/UserListComponent.tsx -->
<g id="edge2" class="edge">
<title>src/App.tsx&#45;&gt;src/Components/User/UserListComponent.tsx</title>
<path fill="none" stroke="#000000" stroke-width="2" stroke-opacity="0.200000" d="M127.39,-94.66C133.28,-85.57 143.49,-72.12 156,-65 158.44,-63.61 160.99,-62.37 163.63,-61.26"/>
<polygon fill="#000000" fill-opacity="0.200000" stroke="#000000" stroke-width="2" stroke-opacity="0.200000" points="163.97,-63.37 168.88,-59.33 162.52,-59.42 163.97,-63.37"/>
</g>
<!-- src/Helpers/Constants/Routes.ts -->
<g id="node4" class="node">
<title>src/Helpers/Constants/Routes.ts</title>
<g id="a_node4"><a xlink:href="src/Helpers/Constants/Routes.ts" xlink:title="Routes.ts">
<path fill="#ddfeff" stroke="black" d="M604.58,-173.88C604.58,-173.88 562.17,-173.88 562.17,-173.88 559.21,-173.88 556.25,-170.92 556.25,-167.96 556.25,-167.96 556.25,-162.04 556.25,-162.04 556.25,-159.08 559.21,-156.12 562.17,-156.12 562.17,-156.12 604.58,-156.12 604.58,-156.12 607.54,-156.12 610.5,-159.08 610.5,-162.04 610.5,-162.04 610.5,-167.96 610.5,-167.96 610.5,-170.92 607.54,-173.88 604.58,-173.88"/>
<text text-anchor="start" x="564.25" y="-161.32" font-family="Helvetica,sans-Serif" font-size="9.00">Routes.ts</text>
</a>
</g>
</g>
<!-- src/App.tsx&#45;&gt;src/Helpers/Constants/Routes.ts -->
<g id="edge3" class="edge">
<title>src/App.tsx&#45;&gt;src/Helpers/Constants/Routes.ts</title>
<path fill="none" stroke="#000000" stroke-width="2" stroke-opacity="0.200000" d="M142.53,-113.31C144.63,-114.95 146.52,-116.84 148,-119 161.45,-138.67 139.55,-154.77 156,-172 214.11,-232.9 257.57,-209 341.75,-209 341.75,-209 341.75,-209 422.75,-209 475.02,-209 498.51,-235.46 540.25,-204 549.23,-197.23 540.68,-188.31 548.25,-180 548.52,-179.7 548.8,-179.41 549.09,-179.12"/>
<polygon fill="#000000" fill-opacity="0.200000" stroke="#000000" stroke-width="2" stroke-opacity="0.200000" points="550.03,-181.05 553.49,-175.71 547.46,-177.73 550.03,-181.05"/>
</g>
<!-- src/Models/Api.ts -->
<g id="node10" class="node">
<title>src/Models/Api.ts</title>
<g id="a_node10"><a xlink:href="src/Models/Api.ts" xlink:title="Api.ts">
<path fill="#ddfeff" stroke="black" d="M682.58,-105.88C682.58,-105.88 640.42,-105.88 640.42,-105.88 637.46,-105.88 634.5,-102.92 634.5,-99.96 634.5,-99.96 634.5,-94.04 634.5,-94.04 634.5,-91.08 637.46,-88.12 640.42,-88.12 640.42,-88.12 682.58,-88.12 682.58,-88.12 685.54,-88.12 688.5,-91.08 688.5,-94.04 688.5,-94.04 688.5,-99.96 688.5,-99.96 688.5,-102.92 685.54,-105.88 682.58,-105.88"/>
<text text-anchor="start" x="650.25" y="-93.33" font-family="Helvetica,sans-Serif" font-size="9.00">Api.ts</text>
</a>
</g>
</g>
<!-- src/Components/LoginComponent.tsx&#45;&gt;src/Models/Api.ts -->
<g id="edge7" class="edge">
<title>src/Components/LoginComponent.tsx&#45;&gt;src/Models/Api.ts</title>
<path fill="none" stroke="#000000" stroke-width="2" stroke-opacity="0.200000" d="M278.26,-102.25C286.17,-99.86 293.6,-96.01 299.25,-90 317.66,-70.39 288.05,-48.85 307.25,-30 343.48,5.57 369.98,-17 420.75,-17 420.75,-17 420.75,-17 498.25,-17 517.11,-17 522.52,-16.59 540.25,-23 579.4,-37.15 619.52,-65.08 642.1,-82.29"/>
<polygon fill="#000000" fill-opacity="0.200000" stroke="#000000" stroke-width="2" stroke-opacity="0.200000" points="640.63,-83.81 646.66,-85.83 643.2,-80.49 640.63,-83.81"/>
</g>
<!-- src/Atoms/UserAtom.tsx -->
<g id="node5" class="node">
<title>src/Atoms/UserAtom.tsx</title>
<g id="a_node5"><a xlink:href="src/Atoms/UserAtom.tsx" xlink:title="UserAtom.tsx">
<path fill="#bbfeff" stroke="black" d="M526.33,-51.88C526.33,-51.88 468.17,-51.88 468.17,-51.88 465.21,-51.88 462.25,-48.92 462.25,-45.96 462.25,-45.96 462.25,-40.04 462.25,-40.04 462.25,-37.08 465.21,-34.12 468.17,-34.12 468.17,-34.12 526.33,-34.12 526.33,-34.12 529.29,-34.12 532.25,-37.08 532.25,-40.04 532.25,-40.04 532.25,-45.96 532.25,-45.96 532.25,-48.92 529.29,-51.88 526.33,-51.88"/>
<text text-anchor="start" x="470.25" y="-39.33" font-family="Helvetica,sans-Serif" font-size="9.00">UserAtom.tsx</text>
</a>
</g>
</g>
<!-- src/Atoms/imports.ts -->
<g id="node6" class="node">
<title>src/Atoms/imports.ts</title>
<g id="a_node6"><a xlink:href="src/Atoms/imports.ts" xlink:title="imports.ts">
<path fill="#ddfeff" stroke="black" d="M443.33,-81.88C443.33,-81.88 400.17,-81.88 400.17,-81.88 397.21,-81.88 394.25,-78.92 394.25,-75.96 394.25,-75.96 394.25,-70.04 394.25,-70.04 394.25,-67.08 397.21,-64.12 400.17,-64.12 400.17,-64.12 443.33,-64.12 443.33,-64.12 446.29,-64.12 449.25,-67.08 449.25,-70.04 449.25,-70.04 449.25,-75.96 449.25,-75.96 449.25,-78.92 446.29,-81.88 443.33,-81.88"/>
<text text-anchor="start" x="402.25" y="-69.33" font-family="Helvetica,sans-Serif" font-size="9.00">imports.ts</text>
</a>
</g>
</g>
<!-- src/Helpers/imports.ts -->
<g id="node7" class="node">
<title>src/Helpers/imports.ts</title>
<g id="a_node7"><a xlink:href="src/Helpers/imports.ts" xlink:title="imports.ts">
<path fill="#ddfeff" stroke="black" d="M518.33,-195.88C518.33,-195.88 476.17,-195.88 476.17,-195.88 473.21,-195.88 470.25,-192.92 470.25,-189.96 470.25,-189.96 470.25,-184.04 470.25,-184.04 470.25,-181.08 473.21,-178.12 476.17,-178.12 476.17,-178.12 518.33,-178.12 518.33,-178.12 521.29,-178.12 524.25,-181.08 524.25,-184.04 524.25,-184.04 524.25,-189.96 524.25,-189.96 524.25,-192.92 521.29,-195.88 518.33,-195.88"/>
<text text-anchor="start" x="481.5" y="-183.32" font-family="Helvetica,sans-Serif" font-size="9.00">imports.ts</text>
</a>
</g>
</g>
<!-- src/Atoms/imports.ts&#45;&gt;src/Helpers/imports.ts -->
<g id="edge4" class="edge">
<title>src/Atoms/imports.ts&#45;&gt;src/Helpers/imports.ts</title>
<path fill="none" stroke="#000000" stroke-width="2" stroke-opacity="0.200000" d="M427.99,-82.32C433.77,-92.9 443.09,-110.8 449.25,-127 456.63,-146.4 448.13,-156.34 461.75,-172 462.62,-173 463.56,-173.93 464.57,-174.81"/>
<polygon fill="#000000" fill-opacity="0.200000" stroke="#000000" stroke-width="2" stroke-opacity="0.200000" points="468,-179.82 464.33,-174.63 470.43,-176.4 468,-179.82"/>
</g>
<!-- src/Models/imports.ts -->
<g id="node8" class="node">
<title>src/Models/imports.ts</title>
<g id="a_node8"><a xlink:href="src/Models/imports.ts" xlink:title="imports.ts">
<path fill="#ddfeff" stroke="black" d="M604.46,-105.88C604.46,-105.88 562.29,-105.88 562.29,-105.88 559.33,-105.88 556.38,-102.92 556.38,-99.96 556.38,-99.96 556.38,-94.04 556.38,-94.04 556.38,-91.08 559.33,-88.12 562.29,-88.12 562.29,-88.12 604.46,-88.12 604.46,-88.12 607.42,-88.12 610.38,-91.08 610.38,-94.04 610.38,-94.04 610.38,-99.96 610.38,-99.96 610.38,-102.92 607.42,-105.88 604.46,-105.88"/>
<text text-anchor="start" x="567.62" y="-93.33" font-family="Helvetica,sans-Serif" font-size="9.00">imports.ts</text>
</a>
</g>
</g>
<!-- src/Atoms/imports.ts&#45;&gt;src/Models/imports.ts -->
<g id="edge5" class="edge">
<title>src/Atoms/imports.ts&#45;&gt;src/Models/imports.ts</title>
<path fill="none" stroke="#000000" stroke-width="2" stroke-opacity="0.200000" d="M449.47,-77.02C476.91,-81.14 519.68,-87.57 549.26,-92.02"/>
<polygon fill="#000000" fill-opacity="0.200000" stroke="#000000" stroke-width="2" stroke-opacity="0.200000" points="554.8,-94.98 549.18,-92.01 555.42,-90.82 554.8,-94.98"/>
</g>
<!-- src/Helpers/imports.ts&#45;&gt;src/Helpers/Constants/Routes.ts -->
<g id="edge13" class="edge">
<title>src/Helpers/imports.ts&#45;&gt;src/Helpers/Constants/Routes.ts</title>
<path fill="none" stroke="#000000" stroke-width="2" stroke-opacity="0.200000" d="M524.41,-180.16C532.24,-178.11 540.95,-175.83 549.17,-173.68"/>
<polygon fill="#000000" fill-opacity="0.200000" stroke="#000000" stroke-width="2" stroke-opacity="0.200000" points="555.51,-174.2 549.17,-173.68 554.45,-170.13 555.51,-174.2"/>
</g>
<!-- src/Models/imports.ts&#45;&gt;src/Models/Api.ts -->
<g id="edge17" class="edge">
<title>src/Models/imports.ts&#45;&gt;src/Models/Api.ts</title>
<path fill="none" stroke="#000000" stroke-width="2" stroke-opacity="0.200000" d="M610.57,-97C615.96,-97 621.69,-97 627.28,-97"/>
<polygon fill="#000000" fill-opacity="0.200000" stroke="#000000" stroke-width="2" stroke-opacity="0.200000" points="633.25,-99.1 627.25,-97 633.25,-94.9 633.25,-99.1"/>
</g>
<!-- src/Atoms/imports.ts -->
<g id="node9" class="node">
<title>src/Atoms/imports.ts</title>
<g id="a_node9"><a xlink:href="src/Atoms/imports.ts" xlink:title="imports.ts">
<path fill="#ddfeff" stroke="black" d="M442.83,-51.88C442.83,-51.88 400.67,-51.88 400.67,-51.88 397.71,-51.88 394.75,-48.92 394.75,-45.96 394.75,-45.96 394.75,-40.04 394.75,-40.04 394.75,-37.08 397.71,-34.12 400.67,-34.12 400.67,-34.12 442.83,-34.12 442.83,-34.12 445.79,-34.12 448.75,-37.08 448.75,-40.04 448.75,-40.04 448.75,-45.96 448.75,-45.96 448.75,-48.92 445.79,-51.88 442.83,-51.88"/>
<text text-anchor="start" x="406" y="-39.33" font-family="Helvetica,sans-Serif" font-size="9.00">imports.ts</text>
</a>
</g>
</g>
<!-- src/Atoms/imports.ts&#45;&gt;src/Atoms/UserAtom.tsx -->
<g id="edge6" class="edge">
<title>src/Atoms/imports.ts&#45;&gt;src/Atoms/UserAtom.tsx</title>
<path fill="none" stroke="#000000" stroke-width="2" stroke-opacity="0.200000" d="M448.87,-43C450.84,-43 452.86,-43 454.9,-43"/>
<polygon fill="#000000" fill-opacity="0.200000" stroke="#000000" stroke-width="2" stroke-opacity="0.200000" points="460.86,-45.1 454.86,-43 460.86,-40.9 460.86,-45.1"/>
</g>
<!-- src/Components/imports.ts -->
<g id="node11" class="node">
<title>src/Components/imports.ts</title>
<g id="a_node11"><a xlink:href="src/Components/imports.ts" xlink:title="imports.ts">
<path fill="#ddfeff" stroke="black" d="M248.71,-142.88C248.71,-142.88 206.54,-142.88 206.54,-142.88 203.58,-142.88 200.62,-139.92 200.62,-136.96 200.62,-136.96 200.62,-131.04 200.62,-131.04 200.62,-128.08 203.58,-125.12 206.54,-125.12 206.54,-125.12 248.71,-125.12 248.71,-125.12 251.67,-125.12 254.62,-128.08 254.62,-131.04 254.62,-131.04 254.62,-136.96 254.62,-136.96 254.62,-139.92 251.67,-142.88 248.71,-142.88"/>
<text text-anchor="start" x="211.88" y="-130.32" font-family="Helvetica,sans-Serif" font-size="9.00">imports.ts</text>
</a>
</g>
</g>
<!-- src/Components/imports.ts&#45;&gt;src/Helpers/imports.ts -->
<g id="edge9" class="edge">
<title>src/Components/imports.ts&#45;&gt;src/Helpers/imports.ts</title>
<path fill="none" stroke="#000000" stroke-width="2" stroke-opacity="0.200000" d="M254.86,-138.42C268.2,-140.78 284.63,-143.83 299.25,-147 302.83,-147.78 303.67,-148.19 307.25,-149 336.44,-155.58 417.07,-171.51 463.03,-180.52"/>
<polygon fill="#000000" fill-opacity="0.200000" stroke="#000000" stroke-width="2" stroke-opacity="0.200000" points="468.44,-183.71 462.96,-180.5 469.25,-179.59 468.44,-183.71"/>
</g>
<!-- src/Components/imports.ts&#45;&gt;src/Models/imports.ts -->
<g id="edge11" class="edge">
<title>src/Components/imports.ts&#45;&gt;src/Models/imports.ts</title>
<path fill="none" stroke="#000000" stroke-width="2" stroke-opacity="0.200000" d="M254.81,-136.08C270.1,-137.19 289.75,-138.44 307.25,-139 338.79,-140 346.75,-140.94 378.25,-139 450.66,-134.55 470.99,-140.58 540.25,-119 547.46,-116.75 554.89,-113.3 561.48,-109.8"/>
<polygon fill="#000000" fill-opacity="0.200000" stroke="#000000" stroke-width="2" stroke-opacity="0.200000" points="567.88,-108.63 561.62,-109.72 565.84,-104.96 567.88,-108.63"/>
</g>
<!-- src/Components/imports.ts&#45;&gt;src/Atoms/imports.ts -->
<g id="edge8" class="edge">
<title>src/Components/imports.ts&#45;&gt;src/Atoms/imports.ts</title>
<path fill="none" stroke="#000000" stroke-width="2" stroke-opacity="0.200000" d="M254.78,-135.44C269.95,-134.78 288.19,-131.13 299.25,-119 319.75,-96.51 285.24,-72.01 307.25,-51 328.15,-31.05 362.21,-31.29 387.58,-35.15"/>
<polygon fill="#000000" fill-opacity="0.200000" stroke="#000000" stroke-width="2" stroke-opacity="0.200000" points="393.15,-38.23 387.58,-35.15 393.85,-34.09 393.15,-38.23"/>
</g>
<!-- src/Hooks/imports.ts -->
<g id="node12" class="node">
<title>src/Hooks/imports.ts</title>
<g id="a_node12"><a xlink:href="src/Hooks/imports.ts" xlink:title="imports.ts">
<path fill="#ddfeff" stroke="black" d="M363.83,-79.88C363.83,-79.88 321.67,-79.88 321.67,-79.88 318.71,-79.88 315.75,-76.92 315.75,-73.96 315.75,-73.96 315.75,-68.04 315.75,-68.04 315.75,-65.08 318.71,-62.12 321.67,-62.12 321.67,-62.12 363.83,-62.12 363.83,-62.12 366.79,-62.12 369.75,-65.08 369.75,-68.04 369.75,-68.04 369.75,-73.96 369.75,-73.96 369.75,-76.92 366.79,-79.88 363.83,-79.88"/>
<text text-anchor="start" x="327" y="-67.33" font-family="Helvetica,sans-Serif" font-size="9.00">imports.ts</text>
</a>
</g>
</g>
<!-- src/Components/imports.ts&#45;&gt;src/Hooks/imports.ts -->
<g id="edge10" class="edge">
<title>src/Components/imports.ts&#45;&gt;src/Hooks/imports.ts</title>
<path fill="none" stroke="#000000" stroke-width="2" stroke-opacity="0.200000" d="M254.96,-134.91C269.81,-133.99 287.65,-130.27 299.25,-119 310.07,-108.48 297.54,-97.55 307.25,-86 308.1,-84.99 309.03,-84.04 310.03,-83.16"/>
<polygon fill="#000000" fill-opacity="0.200000" stroke="#000000" stroke-width="2" stroke-opacity="0.200000" points="315.87,-81.53 309.78,-83.34 313.41,-78.12 315.87,-81.53"/>
</g>
<!-- src/Helpers/Constants/Paths.tsx -->
<g id="node13" class="node">
<title>src/Helpers/Constants/Paths.tsx</title>
<g id="a_node13"><a xlink:href="src/Helpers/Constants/Paths.tsx" xlink:title="no&#45;orphans">
<path fill="#ccffcc" stroke="orange" d="M604.46,-203.88C604.46,-203.88 562.29,-203.88 562.29,-203.88 559.33,-203.88 556.38,-200.92 556.38,-197.96 556.38,-197.96 556.38,-192.04 556.38,-192.04 556.38,-189.08 559.33,-186.12 562.29,-186.12 562.29,-186.12 604.46,-186.12 604.46,-186.12 607.42,-186.12 610.38,-189.08 610.38,-192.04 610.38,-192.04 610.38,-197.96 610.38,-197.96 610.38,-200.92 607.42,-203.88 604.46,-203.88"/>
<text text-anchor="start" x="565" y="-191.32" font-family="Helvetica,sans-Serif" font-size="9.00" fill="orange">Paths.tsx</text>
</a>
</g>
</g>
<!-- src/Helpers/imports.ts -->
<g id="node14" class="node">
<title>src/Helpers/imports.ts</title>
<g id="a_node14"><a xlink:href="src/Helpers/imports.ts" xlink:title="imports.ts">
<path fill="#ddfeff" stroke="black" d="M518.83,-165.88C518.83,-165.88 475.67,-165.88 475.67,-165.88 472.71,-165.88 469.75,-162.92 469.75,-159.96 469.75,-159.96 469.75,-154.04 469.75,-154.04 469.75,-151.08 472.71,-148.12 475.67,-148.12 475.67,-148.12 518.83,-148.12 518.83,-148.12 521.79,-148.12 524.75,-151.08 524.75,-154.04 524.75,-154.04 524.75,-159.96 524.75,-159.96 524.75,-162.92 521.79,-165.88 518.83,-165.88"/>
<text text-anchor="start" x="477.75" y="-153.32" font-family="Helvetica,sans-Serif" font-size="9.00">imports.ts</text>
</a>
</g>
</g>
<!-- src/Helpers/imports.ts&#45;&gt;src/Models/imports.ts -->
<g id="edge12" class="edge">
<title>src/Helpers/imports.ts&#45;&gt;src/Models/imports.ts</title>
<path fill="none" stroke="#000000" stroke-width="2" stroke-opacity="0.200000" d="M518.51,-147.69C525.61,-144.09 533.49,-139.7 540.25,-135 550.36,-127.96 560.65,-118.72 568.53,-111.12"/>
<polygon fill="#000000" fill-opacity="0.200000" stroke="#000000" stroke-width="2" stroke-opacity="0.200000" points="574.33,-108.36 568.58,-111.07 571.38,-105.37 574.33,-108.36"/>
</g>
<!-- src/Hooks/imports.ts -->
<g id="node15" class="node">
<title>src/Hooks/imports.ts</title>
<g id="a_node15"><a xlink:href="src/Hooks/imports.ts" xlink:title="imports.ts">
<path fill="#ddfeff" stroke="black" d="M364.33,-109.88C364.33,-109.88 321.17,-109.88 321.17,-109.88 318.21,-109.88 315.25,-106.92 315.25,-103.96 315.25,-103.96 315.25,-98.04 315.25,-98.04 315.25,-95.08 318.21,-92.12 321.17,-92.12 321.17,-92.12 364.33,-92.12 364.33,-92.12 367.29,-92.12 370.25,-95.08 370.25,-98.04 370.25,-98.04 370.25,-103.96 370.25,-103.96 370.25,-106.92 367.29,-109.88 364.33,-109.88"/>
<text text-anchor="start" x="323.25" y="-97.33" font-family="Helvetica,sans-Serif" font-size="9.00">imports.ts</text>
</a>
</g>
</g>
<!-- src/Hooks/imports.ts&#45;&gt;src/Helpers/imports.ts -->
<g id="edge15" class="edge">
<title>src/Hooks/imports.ts&#45;&gt;src/Helpers/imports.ts</title>
<path fill="none" stroke="#000000" stroke-width="2" stroke-opacity="0.200000" d="M357.93,-110.37C379.75,-124.59 423.07,-152.06 461.75,-172 463.55,-172.93 465.41,-173.85 467.3,-174.75"/>
<polygon fill="#000000" fill-opacity="0.200000" stroke="#000000" stroke-width="2" stroke-opacity="0.200000" points="471.99,-179.23 467.42,-174.81 473.75,-175.41 471.99,-179.23"/>
</g>
<!-- src/Hooks/imports.ts&#45;&gt;src/Models/imports.ts -->
<g id="edge16" class="edge">
<title>src/Hooks/imports.ts&#45;&gt;src/Models/imports.ts</title>
<path fill="none" stroke="#000000" stroke-width="2" stroke-opacity="0.200000" d="M370.56,-108.3C375.73,-109.42 381.13,-110.41 386.25,-111 454.24,-118.89 472.68,-121.93 540.25,-111 544.05,-110.38 547.98,-109.48 551.83,-108.41"/>
<polygon fill="#000000" fill-opacity="0.200000" stroke="#000000" stroke-width="2" stroke-opacity="0.200000" points="558.3,-108.66 551.95,-108.38 557.09,-104.63 558.3,-108.66"/>
</g>
<!-- src/Hooks/imports.ts&#45;&gt;src/Atoms/imports.ts -->
<g id="edge14" class="edge">
<title>src/Hooks/imports.ts&#45;&gt;src/Atoms/imports.ts</title>
<path fill="none" stroke="#000000" stroke-width="2" stroke-opacity="0.200000" d="M370.64,-92.26C373.47,-90.53 376.1,-88.46 378.25,-86 386.78,-76.27 377.72,-67.73 386.25,-58 387.12,-57.01 388.07,-56.07 389.08,-55.2"/>
<polygon fill="#000000" fill-opacity="0.200000" stroke="#000000" stroke-width="2" stroke-opacity="0.200000" points="394.95,-53.62 388.84,-55.37 392.52,-50.19 394.95,-53.62"/>
</g>
<!-- src/index.css -->
<g id="node16" class="node">
<title>src/index.css</title>
<g id="a_node16"><a xlink:href="src/index.css" xlink:title="index.css">
<path fill="#ffffcc" stroke="black" d="M142.08,-142.88C142.08,-142.88 99.67,-142.88 99.67,-142.88 96.71,-142.88 93.75,-139.92 93.75,-136.96 93.75,-136.96 93.75,-131.04 93.75,-131.04 93.75,-128.08 96.71,-125.12 99.67,-125.12 99.67,-125.12 142.08,-125.12 142.08,-125.12 145.04,-125.12 148,-128.08 148,-131.04 148,-131.04 148,-136.96 148,-136.96 148,-139.92 145.04,-142.88 142.08,-142.88"/>
<text text-anchor="start" x="101.75" y="-130.32" font-family="Helvetica,sans-Serif" font-size="9.00">index.css</text>
</a>
</g>
</g>
<!-- src/main.tsx -->
<g id="node17" class="node">
<title>src/main.tsx</title>
<g id="a_node17"><a xlink:href="src/main.tsx" xlink:title="main.tsx">
<path fill="#bbfeff" stroke="black" d="M69.46,-127.88C69.46,-127.88 27.29,-127.88 27.29,-127.88 24.33,-127.88 21.38,-124.92 21.38,-121.96 21.38,-121.96 21.38,-116.04 21.38,-116.04 21.38,-113.08 24.33,-110.12 27.29,-110.12 27.29,-110.12 69.46,-110.12 69.46,-110.12 72.42,-110.12 75.38,-113.08 75.38,-116.04 75.38,-116.04 75.38,-121.96 75.38,-121.96 75.38,-124.92 72.42,-127.88 69.46,-127.88"/>
<text text-anchor="start" x="31.5" y="-115.33" font-family="Helvetica,sans-Serif" font-size="9.00">main.tsx</text>
</a>
</g>
</g>
<!-- src/main.tsx&#45;&gt;src/App.tsx -->
<g id="edge18" class="edge">
<title>src/main.tsx&#45;&gt;src/App.tsx</title>
<path fill="none" stroke="#000000" stroke-width="2" stroke-opacity="0.200000" d="M75.63,-113.41C78.69,-112.76 81.86,-112.09 85.02,-111.42"/>
<polygon fill="#000000" fill-opacity="0.200000" stroke="#000000" stroke-width="2" stroke-opacity="0.200000" points="85.44,-113.47 90.88,-110.17 84.57,-109.36 85.44,-113.47"/>
</g>
<!-- src/main.tsx&#45;&gt;src/index.css -->
<g id="edge19" class="edge">
<title>src/main.tsx&#45;&gt;src/index.css</title>
<path fill="none" stroke="#000000" stroke-width="2" stroke-opacity="0.200000" d="M75.63,-124.59C78.61,-125.22 81.69,-125.88 84.77,-126.53"/>
<polygon fill="#000000" fill-opacity="0.200000" stroke="#000000" stroke-width="2" stroke-opacity="0.200000" points="84.1,-128.54 90.41,-127.73 84.97,-124.43 84.1,-128.54"/>
</g>
<!-- src/vite&#45;env.d.ts -->
<g id="node18" class="node">
<title>src/vite&#45;env.d.ts</title>
<g id="a_node18"><a xlink:href="src/vite-env.d.ts" xlink:title="vite&#45;env.d.ts">
<path fill="#ccffcc" stroke="black" d="M74.83,-219.88C74.83,-219.88 21.92,-219.88 21.92,-219.88 18.96,-219.88 16,-216.92 16,-213.96 16,-213.96 16,-208.04 16,-208.04 16,-205.08 18.96,-202.12 21.92,-202.12 21.92,-202.12 74.83,-202.12 74.83,-202.12 77.79,-202.12 80.75,-205.08 80.75,-208.04 80.75,-208.04 80.75,-213.96 80.75,-213.96 80.75,-216.92 77.79,-219.88 74.83,-219.88"/>
<text text-anchor="start" x="24" y="-207.32" font-family="Helvetica,sans-Serif" font-size="9.00">vite&#45;env.d.ts</text>
</a>
</g>
</g>
</g>
</svg>
